<?xml version="1.0" standalone="no"?>
<!DOCTYPE svg PUBLIC "-//W3C//DTD SVG 20010904//EN"
 "http://www.w3.org/TR/2001/REC-SVG-20010904/DTD/svg10.dtd">
<svg version="1.0" xmlns="http://www.w3.org/2000/svg"
 width="512.000000pt" height="512.000000pt" viewBox="0 0 512.000000 512.000000"
 preserveAspectRatio="xMidYMid meet">

<g transform="translate(0.000000,512.000000) scale(0.100000,-0.100000)"
fill="#000000" stroke="none">
<path d="M905 5103 c-290 -62 -519 -293 -579 -585 -14 -67 -16 -196 -16 -972
l0 -895 -58 -28 c-70 -34 -170 -131 -201 -196 -67 -139 -67 -276 0 -414 33
-66 131 -162 202 -196 l57 -28 0 -272 c0 -312 11 -402 65 -553 78 -220 224
-398 445 -546 l25 -16 -95 -96 -95 -96 105 -105 105 -105 145 145 145 144 65
-9 c87 -13 2593 -13 2680 0 l65 9 145 -144 145 -145 105 105 105 105 -93 93
c-50 51 -92 95 -92 99 0 3 30 25 67 49 135 88 301 282 363 424 84 193 100 292
100 643 l0 272 57 27 c74 35 170 130 206 205 126 263 -26 576 -311 637 -32 6
-158 11 -315 11 l-262 0 -25 53 c-30 65 -129 166 -193 196 -99 48 -130 51
-507 51 -378 0 -408 -3 -507 -51 -66 -33 -164 -132 -194 -196 l-24 -53 -1062
0 -1063 0 0 870 c0 610 3 885 11 922 37 172 175 310 347 347 78 16 434 14 499
-3 87 -23 145 -57 208 -120 69 -70 126 -173 103 -187 -7 -5 -18 -9 -24 -9 -6
0 -39 -12 -75 -26 -193 -79 -366 -262 -428 -453 -30 -91 -41 -170 -41 -288 l0
-103 751 0 752 0 -6 143 c-6 157 -23 233 -77 339 -44 86 -89 145 -165 216 -80
76 -164 125 -272 162 -47 15 -87 30 -90 33 -3 3 -18 43 -33 90 -38 112 -88
195 -173 283 -114 121 -259 198 -420 224 -97 16 -489 11 -572 -7z m1162 -897
c77 -21 136 -52 192 -102 49 -44 103 -119 116 -161 l6 -23 -421 0 -421 0 6 23
c13 41 67 117 114 160 112 100 270 140 408 103z m1763 -1556 c26 -13 47 -34
60 -60 19 -37 20 -58 20 -430 l0 -390 -450 0 -450 0 0 390 c0 372 1 393 20
430 12 24 35 47 58 59 35 19 58 20 370 21 314 0 335 -1 372 -20z m-1120 -430
l0 -150 -1146 0 -1146 0 -40 22 c-101 57 -102 194 -2 254 l39 24 1148 0 1147
0 0 -150z m2030 130 c45 -23 80 -80 80 -131 0 -46 -39 -108 -82 -130 -34 -17
-61 -19 -283 -19 l-245 0 0 150 0 150 245 0 c227 0 249 -2 285 -20z m-2030
-730 l0 -150 750 0 750 0 0 150 0 150 151 0 151 0 -5 -292 c-3 -232 -8 -305
-21 -349 -65 -226 -230 -413 -442 -502 -138 -59 -98 -57 -1484 -57 -1386 0
-1346 -2 -1484 57 -179 75 -334 230 -409 408 -48 114 -57 191 -57 475 l0 260
1050 0 1050 0 0 -150z"/>
</g>
</svg>
