<?xml version="1.0" standalone="no"?>
<!DOCTYPE svg PUBLIC "-//W3C//DTD SVG 20010904//EN"
 "http://www.w3.org/TR/2001/REC-SVG-20010904/DTD/svg10.dtd">
<svg version="1.0" xmlns="http://www.w3.org/2000/svg"
 width="512.000000pt" height="512.000000pt" viewBox="0 0 512.000000 512.000000"
 preserveAspectRatio="xMidYMid meet">

<g transform="translate(0.000000,512.000000) scale(0.100000,-0.100000)"
fill="#000000" stroke="none">
<path d="M810 4374 c-69 -19 -131 -55 -193 -113 -55 -52 -87 -102 -119 -187
-22 -58 -22 -69 -26 -670 l-3 -612 -57 -21 c-178 -65 -334 -238 -389 -431 -16
-59 -18 -111 -18 -577 0 -501 0 -512 21 -539 49 -66 58 -69 259 -72 l183 -4 3
-151 c4 -131 7 -157 25 -187 62 -107 205 -107 261 0 21 39 23 56 23 192 l0
148 1780 0 1780 0 0 -148 c0 -136 2 -153 23 -192 56 -107 199 -107 261 0 18
30 21 56 25 187 l3 151 183 4 c201 3 210 6 259 72 21 27 21 38 21 539 0 466
-2 518 -18 577 -55 193 -211 366 -389 431 l-57 21 -3 612 c-4 591 -5 613 -25
667 -11 31 -29 71 -38 89 -26 51 -102 127 -165 165 -114 69 7 65 -1865 64
-1455 0 -1698 -2 -1745 -15z m3457 -310 c15 -11 38 -36 50 -54 l23 -33 0 -578
0 -579 -180 0 -180 0 0 193 c0 135 -4 206 -14 238 -49 162 -173 287 -335 337
-49 15 -104 17 -431 17 -292 0 -386 -3 -425 -14 -57 -16 -147 -61 -187 -93
l-28 -22 -27 22 c-41 32 -131 77 -188 93 -39 11 -133 14 -425 14 -327 0 -382
-2 -431 -17 -162 -50 -286 -175 -335 -337 -10 -32 -14 -103 -14 -238 l0 -193
-180 0 -180 0 0 575 c0 619 -1 603 52 652 12 12 34 26 48 32 16 6 598 9 1692
8 l1667 -2 28 -21z m-1959 -783 c87 -44 101 -86 102 -298 l0 -163 -485 0 -485
0 0 169 c0 181 5 209 48 255 51 54 58 55 435 56 322 0 351 -1 385 -19z m1265
5 c39 -16 82 -61 96 -99 6 -16 11 -102 11 -198 l0 -169 -485 0 -485 0 0 163
c1 210 15 253 100 298 32 17 64 18 383 19 274 0 354 -3 380 -14z m1021 -795
c72 -29 149 -98 182 -162 37 -74 44 -152 44 -521 l0 -348 -2260 0 -2260 0 0
348 c0 191 5 376 10 411 25 153 136 265 289 291 25 4 921 7 1991 6 l1945 -1
59 -24z"/>
</g>
</svg>
