<?xml version="1.0" standalone="no"?>
<!DOCTYPE svg PUBLIC "-//W3C//DTD SVG 20010904//EN"
 "http://www.w3.org/TR/2001/REC-SVG-20010904/DTD/svg10.dtd">
<svg version="1.0" xmlns="http://www.w3.org/2000/svg"
 width="512.000000pt" height="512.000000pt" viewBox="0 0 512.000000 512.000000"
 preserveAspectRatio="xMidYMid meet">

<g transform="translate(0.000000,512.000000) scale(0.100000,-0.100000)"
fill="#000000" stroke="none">
<path d="M644 5105 c-119 -26 -172 -63 -384 -265 -241 -231 -255 -250 -255
-340 0 -56 4 -73 27 -106 54 -77 138 -108 227 -84 36 9 67 34 163 127 l118
116 2 -1674 3 -1674 28 -90 c80 -259 283 -462 542 -542 l90 -28 1669 -3 1668
-2 -115 -119 c-92 -95 -118 -128 -127 -163 -42 -155 94 -290 250 -248 38 10
73 41 258 223 196 195 217 218 253 292 75 154 75 301 -2 454 -34 68 -60 98
-251 288 -185 182 -220 213 -258 223 -89 24 -178 -10 -230 -87 -20 -30 -25
-49 -25 -102 0 -82 9 -97 159 -249 l111 -112 -1655 2 -1655 3 -54 22 c-112 46
-189 122 -233 230 l-23 58 -3 1660 -2 1660 112 -111 c152 -149 167 -159 248
-159 54 0 72 5 105 28 78 53 109 136 85 227 -10 40 -36 69 -223 253 -233 227
-286 265 -414 292 -82 18 -129 18 -209 0z"/>
<path d="M1876 5113 c-46 -12 -96 -57 -122 -110 -46 -93 -19 -189 71 -251 l40
-27 1360 -5 1360 -5 38 -24 c21 -13 50 -42 65 -64 l27 -41 5 -1365 5 -1366 27
-40 c38 -54 85 -84 146 -92 69 -8 147 29 188 90 l29 42 3 1357 c3 1509 6 1435
-64 1578 -51 103 -161 213 -264 264 -141 69 -69 66 -1555 65 -737 -1 -1349 -4
-1359 -6z"/>
<path d="M3751 4029 c-130 -25 -257 -124 -317 -244 -39 -78 -61 -189 -50 -247
16 -87 104 -158 196 -158 92 0 182 73 195 159 12 72 16 82 40 93 32 14 69 4
84 -26 12 -21 10 -30 -15 -75 -43 -80 -178 -241 -337 -403 -120 -122 -146
-154 -157 -192 -32 -115 46 -234 164 -251 22 -4 174 -5 336 -3 290 3 296 3
333 27 21 13 50 42 65 64 22 34 27 52 27 106 0 117 -68 189 -190 198 -36 3
-65 8 -65 10 0 3 22 33 49 67 112 141 183 279 196 381 4 28 2 79 -4 114 -42
258 -292 431 -550 380z"/>
<path d="M1472 3329 c-46 -14 -109 -80 -122 -128 -7 -27 -10 -253 -8 -709 l3
-668 27 -41 c41 -62 90 -88 168 -88 78 0 127 26 168 88 l27 41 5 505 c5 504 5
506 27 537 59 83 187 83 246 0 22 -31 22 -33 27 -537 l5 -505 27 -41 c41 -62
90 -88 168 -88 78 0 127 26 168 88 l27 41 5 505 c5 504 5 506 27 537 65 91
210 80 257 -20 14 -30 16 -92 16 -514 l0 -480 28 -53 c22 -43 38 -59 81 -81
68 -36 114 -36 182 0 43 22 59 38 81 81 l28 53 0 487 c0 304 -4 510 -11 547
-38 208 -224 394 -437 435 -128 24 -277 -4 -392 -75 l-60 -37 -66 40 c-98 59
-159 75 -289 75 -80 0 -123 -5 -158 -18 -47 -17 -49 -17 -82 4 -40 25 -125 34
-173 19z"/>
</g>
</svg>
